<svg width="26" height="21" viewBox="0 0 26 21" fill="none" xmlns="http://www.w3.org/2000/svg">
<path d="M5.57489 3.8125H22.2539C24.0191 3.8125 25.3254 5.49506 24.9285 7.25742L23.4505 13.8199C23.1631 15.096 22.054 16 20.7758 16H10.5035C9.22526 16 8.11623 15.096 7.82881 13.8199L5.57489 3.8125ZM5.57489 3.8125L5.28555 2.92311C4.91192 1.77465 3.86298 1 2.68148 1H1M21 7H18" stroke="black" stroke-width="2" stroke-linecap="round"/>
<path d="M12.077 19.5714C12.077 20.3604 11.4571 21 10.6924 21C9.92765 21 9.30774 20.3604 9.30774 19.5714C9.30774 18.7824 9.92765 18.1429 10.6924 18.1429C11.4571 18.1429 12.077 18.7824 12.077 19.5714Z" fill="black"/>
<path d="M21.3077 19.5714C21.3077 20.3604 20.6878 21 19.9231 21C19.1584 21 18.5385 20.3604 18.5385 19.5714C18.5385 18.7824 19.1584 18.1429 19.9231 18.1429C20.6878 18.1429 21.3077 18.7824 21.3077 19.5714Z" fill="black"/>
</svg>
