<svg width="24" height="24" viewBox="0 0 24 24" fill="none" xmlns="http://www.w3.org/2000/svg">
<path d="M7.47815 7.47815C7.07917 7.87712 6.41426 7.85907 5.99303 7.43784C5.57179 7.0166 5.55375 6.35169 5.95272 5.95272C6.35169 5.55375 7.0166 5.57179 7.43784 5.99303C7.85907 6.41426 7.87712 7.07917 7.47815 7.47815Z" fill="black"/>
<path d="M1.09051 7.10824L2.08927 7.15806L1.09051 7.10824ZM1.65741 3.27369L2.54113 3.74169L1.65741 3.27369ZM7.10824 1.09051L7.05841 0.0917493H7.05841L7.10824 1.09051ZM3.27369 1.6574L3.74169 2.54113L3.27369 1.6574ZM3.14099 13.2547L3.8481 12.5476L3.14099 13.2547ZM1.61486 11.5363L2.47264 11.0223L1.61486 11.5363ZM1.04932 7.93393L0.0505579 7.88411H0.0505578L1.04932 7.93393ZM1.07806 10.1708L2.05671 9.96527L1.07806 10.1708ZM15.8699 22.8281L16.1577 23.7858L15.8699 22.8281ZM9.74334 19.857L9.03623 20.5641L9.74334 19.857ZM13.2739 22.7576L13.6034 21.8135L13.2739 22.7576ZM19.857 9.74334L20.5641 9.03624L19.857 9.74334ZM22.7576 13.2739L21.8135 13.6034L22.7576 13.2739ZM22.8281 15.8699L23.7858 16.1577L22.8281 15.8699ZM13.2547 3.14099L12.5476 3.8481L13.2547 3.14099ZM11.5363 1.61486L11.0223 2.47264L11.5363 1.61486ZM7.93393 1.04932L7.98376 2.04807H7.98376L7.93393 1.04932ZM10.1708 1.07806L9.96527 2.05671L10.1708 1.07806ZM12.5476 3.8481L19.1499 10.4504L20.5641 9.03624L13.9618 2.43388L12.5476 3.8481ZM19.4079 18.541L18.541 19.4079L19.9552 20.8221L20.8221 19.9552L19.4079 18.541ZM10.4504 19.1499L3.8481 12.5476L2.43388 13.9618L9.03623 20.5641L10.4504 19.1499ZM2.04807 7.98376L2.08927 7.15806L0.0917494 7.05841L0.0505579 7.88411L2.04807 7.98376ZM7.15806 2.08927L7.98376 2.04807L7.88411 0.050558L7.05841 0.0917493L7.15806 2.08927ZM2.08927 7.15806C2.14078 6.12549 2.17729 5.40746 2.24851 4.84799C2.31826 4.30008 2.41314 3.98338 2.54113 3.74169L0.773679 2.80568C0.487007 3.347 0.349181 3.93039 0.264521 4.59542C0.181333 5.24888 0.141726 6.05663 0.0917494 7.05841L2.08927 7.15806ZM7.05841 0.0917493C6.05663 0.141725 5.24888 0.181333 4.59542 0.264521C3.93039 0.34918 3.347 0.487007 2.80568 0.773679L3.74169 2.54113C3.98338 2.41314 4.30008 2.31826 4.84799 2.24851C5.40746 2.17729 6.12549 2.14078 7.15806 2.08927L7.05841 0.0917493ZM2.54113 3.74169C2.81281 3.22868 3.22868 2.81281 3.74169 2.54113L2.80568 0.773679C1.93847 1.23294 1.23294 1.93847 0.773679 2.80568L2.54113 3.74169ZM3.8481 12.5476C2.98656 11.686 2.6818 11.3713 2.47264 11.0223L0.757078 12.0503C1.12281 12.6606 1.64385 13.1717 2.43388 13.9618L3.8481 12.5476ZM0.0505578 7.88411C-0.0033108 8.96392 -0.0466758 9.68071 0.0994031 10.3763L2.05671 9.96527C1.976 9.58096 1.98907 9.16648 2.04807 7.98376L0.0505578 7.88411ZM2.47264 11.0223C2.2743 10.6913 2.13402 10.3334 2.05671 9.96527L0.0994031 10.3763C0.223053 10.9651 0.445988 11.5312 0.757078 12.0503L2.47264 11.0223ZM18.541 19.4079C17.7195 20.2294 17.1477 20.8 16.6649 21.2061C16.1924 21.6035 15.8736 21.7828 15.5822 21.8704L16.1577 23.7858C16.8169 23.5877 17.378 23.2197 17.9524 22.7366C18.5164 22.2621 19.1583 21.6189 19.9552 20.8221L18.541 19.4079ZM9.03623 20.5641C9.8795 21.4074 10.5517 22.0806 11.1361 22.581C11.7281 23.088 12.2933 23.4746 12.9444 23.7018L13.6034 21.8135C13.2868 21.703 12.9411 21.4936 12.4369 21.0619C11.9251 20.6235 11.3158 20.0153 10.4504 19.1499L9.03623 20.5641ZM15.5822 21.8704C14.9549 22.0588 14.2622 22.0434 13.6034 21.8135L12.9444 23.7018C13.9877 24.0659 15.1125 24.0998 16.1577 23.7858L15.5822 21.8704ZM19.1499 10.4504C20.0153 11.3158 20.6235 11.9251 21.0619 12.4369C21.4936 12.9411 21.703 13.2868 21.8135 13.6034L23.7018 12.9444C23.4746 12.2933 23.088 11.7281 22.581 11.1361C22.0806 10.5517 21.4074 9.8795 20.5641 9.03624L19.1499 10.4504ZM20.8221 19.9552C21.6189 19.1583 22.2621 18.5164 22.7366 17.9524C23.2197 17.378 23.5877 16.8169 23.7858 16.1577L21.8704 15.5822C21.7828 15.8736 21.6035 16.1924 21.2061 16.6649C20.8 17.1477 20.2294 17.7195 19.4079 18.541L20.8221 19.9552ZM21.8135 13.6034C22.0434 14.2622 22.0588 14.9549 21.8704 15.5822L23.7858 16.1577C24.0998 15.1125 24.0659 13.9877 23.7018 12.9444L21.8135 13.6034ZM13.9618 2.43388C13.1717 1.64385 12.6606 1.12281 12.0503 0.757077L11.0223 2.47264C11.3713 2.6818 11.686 2.98656 12.5476 3.8481L13.9618 2.43388ZM7.98376 2.04807C9.16648 1.98907 9.58096 1.976 9.96527 2.05671L10.3763 0.099403C9.68071 -0.0466759 8.96392 -0.00331056 7.88411 0.050558L7.98376 2.04807ZM12.0503 0.757077C11.5312 0.445988 10.9651 0.223053 10.3763 0.099403L9.96527 2.05671C10.3334 2.13402 10.6913 2.2743 11.0223 2.47264L12.0503 0.757077ZM6.77104 6.77104C6.77332 6.76876 6.77704 6.76644 6.77969 6.76542C6.78145 6.76475 6.77877 6.76615 6.77106 6.76594C6.75531 6.76551 6.72793 6.75853 6.70013 6.73073L5.28592 8.14495C6.06102 8.92004 7.36007 9.01043 8.18525 8.18525L6.77104 6.77104ZM6.70013 6.73073C6.67234 6.70294 6.66536 6.67556 6.66493 6.6598C6.66472 6.65209 6.66612 6.64942 6.66544 6.65118C6.66443 6.65383 6.66211 6.65755 6.65983 6.65983L5.24561 5.24561C4.42043 6.0708 4.51083 7.36985 5.28592 8.14495L6.70013 6.73073ZM6.65983 6.65983C6.65755 6.66211 6.65383 6.66443 6.65118 6.66544C6.64942 6.66612 6.65209 6.66472 6.6598 6.66493C6.67556 6.66536 6.70294 6.67234 6.73073 6.70013L8.14495 5.28592C7.36985 4.51083 6.0708 4.42043 5.24561 5.24561L6.65983 6.65983ZM6.73073 6.70013C6.75853 6.72793 6.76551 6.75531 6.76594 6.77106C6.76615 6.77877 6.76475 6.78145 6.76542 6.77969C6.76644 6.77703 6.76876 6.77332 6.77104 6.77104L8.18525 8.18525C9.01043 7.36007 8.92004 6.06102 8.14495 5.28592L6.73073 6.70013Z" fill="black"/>
</svg>
