<svg width="26" height="25" viewBox="0 0 26 25" fill="none" xmlns="http://www.w3.org/2000/svg">
<path d="M7.86235 4.05307L7.18271 3.31952L7.86235 4.05307ZM11.6131 1.21037L11.9098 2.16534L11.6131 1.21037ZM18.1376 4.05307L17.458 4.78662L18.1376 4.05307ZM14.3869 1.21037L14.0902 2.16534L14.3869 1.21037ZM3.62085 23.461L3.15634 24.3466L3.62085 23.461ZM1.52317 21.3016L0.62694 21.7452L1.52317 21.3016ZM24.4768 21.3016L25.3731 21.7452L24.4768 21.3016ZM22.3792 23.461L22.8437 24.3466L22.3792 23.461ZM24.8491 11.3825L25.8194 11.1404L24.8491 11.3825ZM22.4576 8.05553L23.1373 7.32197L22.4576 8.05553ZM24.1976 9.87656L25.0377 9.33416L24.1976 9.87656ZM1.15088 11.3825L0.18062 11.1404L1.15088 11.3825ZM3.54235 8.05553L2.86272 7.32198L3.54235 8.05553ZM1.80239 9.87656L0.962271 9.33416H0.962271L1.80239 9.87656ZM14.7765 15.1022L14.5176 16.0681L14.7765 15.1022ZM16.8978 17.2235L17.8637 16.9647V16.9647L16.8978 17.2235ZM11.2235 15.1022L10.9647 14.1363H10.9647L11.2235 15.1022ZM9.10222 17.2235L8.1363 16.9647V16.9647L9.10222 17.2235ZM24 13.9321V16.0935H26V13.9321H24ZM2 16.0935V13.9321H0V16.0935H2ZM4.22198 8.78908L8.54198 4.78662L7.18271 3.31952L2.86272 7.32198L4.22198 8.78908ZM17.458 4.78662L21.778 8.78908L23.1373 7.32197L18.8173 3.31952L17.458 4.78662ZM8.54198 4.78662C9.46147 3.93472 10.1094 3.33541 10.6539 2.90484C11.1891 2.48163 11.5617 2.27349 11.9098 2.16534L11.3163 0.255407C10.6376 0.466305 10.0428 0.838294 9.41334 1.33606C8.79316 1.82647 8.07914 2.48898 7.18271 3.31952L8.54198 4.78662ZM18.8173 3.31952C17.9209 2.48898 17.2068 1.82647 16.5867 1.33606C15.9572 0.838294 15.3624 0.466305 14.6837 0.255407L14.0902 2.16534C14.4383 2.27349 14.8109 2.48163 15.3461 2.90484C15.8906 3.33541 16.5385 3.93472 17.458 4.78662L18.8173 3.31952ZM11.9098 2.16534C12.621 1.94436 13.379 1.94436 14.0902 2.16534L14.6837 0.255407C13.5859 -0.0856645 12.4141 -0.0856645 11.3163 0.255407L11.9098 2.16534ZM8.68 22.9996C7.31889 22.9996 6.35996 22.9988 5.61118 22.9358C4.87496 22.8739 4.43174 22.7572 4.08535 22.5755L3.15634 24.3466C3.83672 24.7035 4.57896 24.856 5.44356 24.9288C6.29559 25.0004 7.35286 24.9996 8.68 24.9996V22.9996ZM0 16.0935C0 17.4612 -0.00073421 18.5453 0.0685309 19.4181C0.138657 20.3016 0.285236 21.0548 0.62694 21.7452L2.4194 20.858C2.23793 20.4914 2.12293 20.0242 2.06226 19.2598C2.00073 18.4846 2 17.4932 2 16.0935H0ZM4.08535 22.5755C3.37255 22.2016 2.78767 21.6021 2.4194 20.858L0.62694 21.7452C1.17905 22.8607 2.06279 23.773 3.15634 24.3466L4.08535 22.5755ZM24 16.0935C24 17.4932 23.9993 18.4846 23.9377 19.2598C23.8771 20.0242 23.7621 20.4914 23.5806 20.858L25.3731 21.7452C25.7148 21.0548 25.8613 20.3016 25.9315 19.4181C26.0007 18.5453 26 17.4612 26 16.0935H24ZM17.32 24.9996C18.6471 24.9996 19.7044 25.0004 20.5564 24.9288C21.421 24.856 22.1633 24.7035 22.8437 24.3466L21.9146 22.5755C21.5683 22.7572 21.125 22.8739 20.3888 22.9358C19.64 22.9988 18.6811 22.9996 17.32 22.9996V24.9996ZM23.5806 20.858C23.2123 21.6021 22.6275 22.2016 21.9146 22.5755L22.8437 24.3466C23.9372 23.773 24.8209 22.8607 25.3731 21.7452L23.5806 20.858ZM26 13.9321C26 12.6856 26.007 11.8923 25.8194 11.1404L23.8789 11.6246C23.993 12.0823 24 12.5855 24 13.9321H26ZM21.778 8.78908C22.7512 9.69073 23.1058 10.0291 23.3575 10.419L25.0377 9.33416C24.6179 8.68392 24.0364 8.155 23.1373 7.32197L21.778 8.78908ZM25.8194 11.1404C25.6593 10.4986 25.3953 9.88798 25.0377 9.33416L23.3575 10.419C23.595 10.7869 23.7715 11.1944 23.8789 11.6246L25.8194 11.1404ZM2 13.9321C2 12.5855 2.00695 12.0823 2.12114 11.6246L0.18062 11.1404C-0.00695002 11.8923 0 12.6856 0 13.9321H2ZM2.86272 7.32198C1.96361 8.155 1.38208 8.68392 0.962271 9.33416L2.64252 10.419C2.89418 10.0291 3.2488 9.69073 4.22198 8.78908L2.86272 7.32198ZM2.12114 11.6246C2.22846 11.1944 2.40496 10.7869 2.64252 10.419L0.962271 9.33416C0.604713 9.88798 0.340743 10.4986 0.18062 11.1404L2.12114 11.6246ZM16 19V23.68H18V19H16ZM10 23.68V19H8V23.68H10ZM13 16C13.9944 16 14.2954 16.0086 14.5176 16.0681L15.0353 14.1363C14.4946 13.9914 13.8656 14 13 14V16ZM18 19C18 18.1344 18.0086 17.5054 17.8637 16.9647L15.9319 17.4824C15.9914 17.7046 16 18.0056 16 19H18ZM14.5176 16.0681C15.2078 16.2531 15.7469 16.7922 15.9319 17.4824L17.8637 16.9647C17.4938 15.5843 16.4156 14.5062 15.0353 14.1363L14.5176 16.0681ZM13 14C12.1344 14 11.5054 13.9914 10.9647 14.1363L11.4824 16.0681C11.7046 16.0086 12.0056 16 13 16V14ZM10 19C10 18.0056 10.0086 17.7046 10.0681 17.4824L8.1363 16.9647C7.99141 17.5054 8 18.1344 8 19H10ZM10.9647 14.1363C9.58436 14.5062 8.50617 15.5843 8.1363 16.9647L10.0681 17.4824C10.2531 16.7922 10.7922 16.2531 11.4824 16.0681L10.9647 14.1363ZM8 23.68C8 23.3039 8.30512 22.9992 8.6812 22.9996L8.6788 24.9996C9.40822 25.0005 10 24.4094 10 23.68H8ZM16 23.68C16 24.4094 16.5918 25.0005 17.3212 24.9996L17.3188 22.9996C17.6949 22.9992 18 23.3039 18 23.68H16Z" fill="black"/>
</svg>
