<svg width="26" height="26" viewBox="0 0 26 26" fill="none" xmlns="http://www.w3.org/2000/svg">
<path d="M17.8 8.2L18.5071 8.90711L18.5071 8.90711L17.8 8.2ZM25 1H26C26 0.447715 25.5523 0 25 0V1ZM24 4.6C24 5.15229 24.4477 5.6 25 5.6C25.5523 5.6 26 5.15229 26 4.6H24ZM21.4 0C20.8477 0 20.4 0.447715 20.4 1C20.4 1.55228 20.8477 2 21.4 2V0ZM19.2 15.4C19.2 20.1497 15.3497 24 10.6 24V26C16.4542 26 21.2 21.2542 21.2 15.4H19.2ZM10.6 24C5.85035 24 2 20.1497 2 15.4H0C0 21.2542 4.74578 26 10.6 26V24ZM2 15.4C2 10.6504 5.85035 6.8 10.6 6.8V4.8C4.74578 4.8 0 9.54578 0 15.4H2ZM18.5071 8.90711L25.7071 1.70711L24.2929 0.292893L17.0929 7.49289L18.5071 8.90711ZM24 1V4.6H26V1H24ZM25 0H21.4V2H25V0ZM10.6 6.8C12.9751 6.8 15.1237 7.76149 16.6811 9.31888L18.0953 7.90467C16.1782 5.98754 13.5268 4.8 10.6 4.8V6.8ZM16.6811 9.31888C18.2385 10.8763 19.2 13.0249 19.2 15.4H21.2C21.2 12.4732 20.0125 9.8218 18.0953 7.90467L16.6811 9.31888ZM17.0929 7.49289L16.6811 7.90467L18.0953 9.31888L18.5071 8.90711L17.0929 7.49289Z" fill="black"/>
</svg>
