<svg width="26" height="22" viewBox="0 0 26 22" fill="none" xmlns="http://www.w3.org/2000/svg">
<path d="M2.0919 20C1.53961 20 1.0919 20.4477 1.0919 21C1.0919 21.5523 1.53961 22 2.0919 22V20ZM23.9081 22C24.4604 22 24.9081 21.5523 24.9081 21C24.9081 20.4477 24.4604 20 23.9081 20V22ZM21.2721 13.8889C21.2721 13.3366 20.8244 12.8889 20.2721 12.8889C19.7198 12.8889 19.2721 13.3366 19.2721 13.8889H21.2721ZM6.72793 13.8889C6.72793 13.3366 6.28022 12.8889 5.72793 12.8889C5.17565 12.8889 4.72793 13.3366 4.72793 13.8889H6.72793ZM23.3056 2.5366L22.3761 2.90531V2.90531L23.3056 2.5366ZM24.6 5.79985L23.6704 6.16856V6.16856L24.6 5.79985ZM2.6944 2.5366L1.76486 2.16789L1.76486 2.16789L2.6944 2.5366ZM1.40001 5.79985L0.470465 5.43114V5.43114L1.40001 5.79985ZM6.72793 7.11111C6.72793 6.55883 6.28022 6.11111 5.72793 6.11111C5.17565 6.11111 4.72793 6.55883 4.72793 7.11111H6.72793ZM1.27304 8.4462L2.11233 7.90252L1.27304 8.4462ZM11.576 7.11111C11.576 6.55883 11.1283 6.11111 10.576 6.11111C10.0237 6.11111 9.57598 6.55883 9.57598 7.11111H11.576ZM16.424 7.11111C16.424 6.55883 15.9763 6.11111 15.424 6.11111C14.8717 6.11111 14.424 6.55883 14.424 7.11111H16.424ZM21.2721 7.11111C21.2721 6.55883 20.8244 6.11111 20.2721 6.11111C19.7198 6.11111 19.2721 6.55883 19.2721 7.11111H21.2721ZM24.727 8.4462L25.5663 8.98988V8.98988L24.727 8.4462ZM2.0919 22H5.72793V20H2.0919V22ZM5.72793 22H20.2721V20H5.72793V22ZM20.2721 22H23.9081V20H20.2721V22ZM21.2721 21V13.8889H19.2721V21H21.2721ZM6.72793 21V13.8889H4.72793V21H6.72793ZM4.94505 2H21.0549V0H4.94505V2ZM22.3761 2.90531L23.6704 6.16856L25.5295 5.43114L24.2351 2.16789L22.3761 2.90531ZM1.76486 2.16789L0.470465 5.43114L2.32955 6.16856L3.62395 2.90531L1.76486 2.16789ZM21.0549 2C21.6322 2 22.1576 2.35464 22.3761 2.90531L24.2351 2.16789C23.7173 0.862452 22.4601 0 21.0549 0V2ZM4.94505 0C3.53995 0 2.28267 0.862453 1.76486 2.16789L3.62395 2.90531C3.84238 2.35464 4.36777 2 4.94505 2V0ZM4.72793 7.11111C4.72793 7.91678 4.08248 8.55556 3.30391 8.55556V10.5556C5.20284 10.5556 6.72793 9.0055 6.72793 7.11111H4.72793ZM3.30391 8.55556C2.80928 8.55556 2.36988 8.30011 2.11233 7.90252L0.433747 8.98988C1.04157 9.9282 2.09812 10.5556 3.30391 10.5556V8.55556ZM9.57598 7.11111C9.57598 7.91678 8.93053 8.55556 8.15195 8.55556V10.5556C10.0509 10.5556 11.576 9.0055 11.576 7.11111H9.57598ZM8.15195 8.55556C7.37338 8.55556 6.72793 7.91678 6.72793 7.11111H4.72793C4.72793 9.0055 6.25303 10.5556 8.15195 10.5556V8.55556ZM14.424 7.11111C14.424 7.91678 13.7786 8.55556 13 8.55556V10.5556C14.8989 10.5556 16.424 9.0055 16.424 7.11111H14.424ZM13 8.55556C12.2214 8.55556 11.576 7.91678 11.576 7.11111H9.57598C9.57598 9.0055 11.1011 10.5556 13 10.5556V8.55556ZM19.2721 7.11111C19.2721 7.91678 18.6266 8.55556 17.848 8.55556V10.5556C19.747 10.5556 21.2721 9.0055 21.2721 7.11111H19.2721ZM17.848 8.55556C17.0695 8.55556 16.424 7.91678 16.424 7.11111H14.424C14.424 9.0055 15.9491 10.5556 17.848 10.5556V8.55556ZM23.8877 7.90252C23.6301 8.3001 23.1907 8.55556 22.6961 8.55556V10.5556C23.9019 10.5556 24.9584 9.92821 25.5663 8.98988L23.8877 7.90252ZM22.6961 8.55556C21.9175 8.55556 21.2721 7.91678 21.2721 7.11111H19.2721C19.2721 9.0055 20.7972 10.5556 22.6961 10.5556V8.55556ZM0.470465 5.43114C0.290761 5.88418 0.0919012 6.45042 0.024401 7.0415C-0.044556 7.64533 0.0161196 8.34518 0.433747 8.98988L2.11233 7.90252C2.024 7.76617 1.97637 7.57594 2.01149 7.26842C2.04806 6.94814 2.16566 6.58173 2.32955 6.16856L0.470465 5.43114ZM23.6704 6.16856C23.8343 6.58173 23.9519 6.94814 23.9885 7.26842C24.0236 7.57594 23.976 7.76617 23.8877 7.90253L25.5663 8.98988C25.9839 8.34518 26.0446 7.64533 25.9756 7.0415C25.9081 6.45042 25.7092 5.88418 25.5295 5.43114L23.6704 6.16856Z" fill="black"/>
</svg>
